<svg id="Layer_1" data-name="Layer 1" xmlns="http://www.w3.org/2000/svg" viewBox="0 0 472.48 413.08"><defs><style>.cls-1{fill:#f2bc59;}.cls-2{fill:#e0b266;}.cls-3{fill:#312722;}</style></defs><title>0960C1D1-72CE-405A-888F-0268D3D29927-removebg-preview_1</title><path class="cls-1" d="M1049.52,384c-3.78-16.37-10.8-31.08-23-42.79-5-4.78-10.76-8.73-16.24-13.11,1.92-4.39,3.89-8.88,5.87-13.38l-1.5-.76c-3.66,5-7.5,10-10.92,15.16-4.3,6.54-10.15,9.73-17.79,8-11.14-2.5-22.22-5.37-33.2-8.5-7.47-2.13-14.73-5-22.68-7.69,7.21-10.35,14.17-20.35,21.55-30.8a10.64,10.64,0,0,0,1.09-2.12,2,2,0,0,0,.52-.52c2.47-3.92,4.66-7.47,6.86-11l-1.58-1-7.1,10.37s.14.1-.23.15a9.56,9.56,0,0,0-1.61,2.09c-6,7.1-12,14.23-18.08,21.28-12.32,14.29-14.53,30.82-8,47.71,7.91,20.58,17.56,40.49,26.59,60.63.47,1,2,1.82,3.2,2.32,10.51,4.32,21.12,8.42,31.55,12.92,1.69.73,2.67,3.1,4,4.7-1.85,1.17-3.65,3.26-5.55,3.36-13.43.7-26.89,1.59-40.31,1.28-28.64-.67-57.27-2-85.91-3.09-1.63-.06-3.26-.14-5.48-.24,3.87-4.45,3.24-9.08,2.08-13.87a84.16,84.16,0,0,1-2.63-13.71c-.29-4.2-.31-8.78,1-12.68,3.55-10.27.92-19.65-3.89-28.3-6.28-11.28-8.41-23.34-9.5-35.84A126.28,126.28,0,0,0,835.24,313c-.74,3.76-2,7.49-2.1,11.27-.18,4.59-1.74,8-5.62,10.38-13.11,8.17-26.92,12.76-43.84,7.95l3.72,6.2c-7.26,7.78-13.08,17.86-26.24,19.7,5.88,2.31,10.13,5.11,11.92,11.06.57,1.88,3.93,3.61,6.3,4.12,9.26,2,18.64,3.51,28,5.22a13.85,13.85,0,0,1,5.21,1.77H733.17a44.62,44.62,0,0,1,1.35-5.79q15.06-38.52,30.25-77c1.88-4.76,5.23-7.68,10.43-9.12,2.92-.8,6.52-3,7.74-5.54,6.77-14.18,12.89-28.66,18.73-43.49-4.79,4.7-10.31,4.05-15.88,3.41-18.35-2.12-30.61-12.1-33.73-28.34-2.52-13.14,1.46-24.72,10.48-34.46s18.17-19,27.11-28.66c2.14-2.31,3.67-5.18,5.49-7.8l-1.21-1-4.35,4c-7.45-3.56-12.72-17.26-9.57-24.56.26-.6.56-1.55,1-1.65,5.06-1.2,3.91-5.4,4.27-8.78.56-5.18.93-10.39,1.47-16.58,2.07,1.3,3.07,1.61,3.57,2.29,3.48,4.77,6.46,10,10.35,14.38,10.66,12.08,10.82,24.65-.7,38.63-6.23,7.56-13.57,14.18-19.78,21.75A116.79,116.79,0,0,0,766.79,202c-4.19,8-3.75,16.45,2.45,23.8,6,7.16,14.73,9.55,23.88,6.64,15.51-5,27.63-15,38.86-26.24,17.18-17.19,29.43-38,42.8-58C887,129.88,898.9,111.46,912,93.87c11.37-15.31,25.34-28.25,43.17-36,6.6-2.88,13.76-4.47,21.57-6-19.21,23.41-22.13,47.91-6.65,73.57,3.7,6.12,8.54,12,17,15.27-4.79-6.52-9.06-11.78-12.71-17.44-7.15-11.07-12.28-23.14-8-36.34C974,63.45,987.49,45.2,1014.23,42c13.52-1.62,27.18-2.18,40.79-3.08,12.3-.81,24.65-1,36.89-2.34,5.27-.57,10.33-3.22,15.43-5.07,2.1-.75,4.07-1.86,6.55-2.29-1.39,6.52-5,11.87-10.42,14.71-7.58,4-15.81,6.86-24,9.55-13.23,4.35-27.06,7.18-39.9,12.44-20,8.18-22.45,23.12-6.58,38.78a17.81,17.81,0,0,0-1.26-4.2c-6.87-11.67-5.71-18.4,4.94-26.68.92-.71,2.88-1.16,3.76-.67,19.93,11,40.34,21.38,56.09,38.4,4,4.29,6.87,9.57,10.27,14.4l-1,1.18-7-1.13c2,1.9,3,3.17,4.29,3.95,7.31,4.47,14.18,9.38,18.27,17.24,5.13,9.87,15.16,11.14,24.34,13.7a47,47,0,0,0,10.89,1.2c13.25.49,21.42-5.6,24.25-18.71,2-9.09,2.83-18.41,4.66-27.53,1.93-9.57,6.56-17.75,14.46-23.78,1.5-1.14,3.25-1.95,5.7-3.41,0,2.48.08,3.91,0,5.32-1,16.24-2.12,32.48-3,48.72-.51,8.81-.55,17.65-1.13,26.45-1,14.63-10.07,23.12-22.3,29.43-11.64,6-23.94,4.87-36.19,4-6.54-.49-13.43-.83-18.11-6.83-.26-.34-3.1.39-3.47,1.21-4.8,10.41-9.9,20.73-13.76,31.48-2.19,6.1-2.58,12.92-3.19,19.47s-.54,13.31-.72,20c-.13,5.07-2.75,8.5-7.14,10.56-12.81,6-26.42,7.54-39.9,4-5.3-1.38-10.86-5.77-14.08-10.35-13-18.5-29.11-34.06-44.65-50.23-4.72-4.92-7.89-11.32-12.14-17.6.17,1.84,0,3.66.54,5.24,4,12.07,12.94,20.68,21.28,29.73,9.35,10.14,18.93,20.13,27.57,30.87,6.88,8.55,14.66,15.42,24.91,19.24,3,1.13,4.11,2.79,3.87,5.91-2.42,31.43,12.36,56.19,31.4,79,4.13,4.94,10.62,7.87,15.91,11.87a116.32,116.32,0,0,1,10.19,8.83,6.35,6.35,0,0,0,1.53,1.72s-.43.11-.32.4a25.86,25.86,0,0,1-.24,3.19,3.69,3.69,0,0,1-1.94.36,55.5,55.5,0,0,0-6.67-.57q-32-.09-64-.12c-.11-4.65-.23-9.29-.19-14.52.27-.93.18-1.21-.11-1.43M874.09,245.76q2.22-15.84,4.44-31.68a32.65,32.65,0,0,0-1.88,2.9c-4.86,9.39-6.3,19.53-6.17,29.94a49.76,49.76,0,0,1-10.42,32c-6.56,8.52-13,17.13-19.58,25.84,7.45,0,36.52-40.4,37.91-52.31-4.45.23-3.33-3.48-4.3-6.69m172.41-52.38c3.18,6,8.4,8.67,15.92,10.14-4.56-8.53-8.84-15.66-15.55-20.87l-2,.76C1045.31,186.5,1045.74,189.6,1046.5,193.38Z" transform="translate(-733.17 -29.22)"/><path class="cls-2" d="M1049.82,400.28c21.33-.35,42.66-.32,64-.26a48.42,48.42,0,0,1,6.32.55c-17.92.35-36.21.57-54.5.65A137.43,137.43,0,0,1,1049.82,400.28Z" transform="translate(-733.17 -29.22)"/><path class="cls-2" d="M1122.68,400.24a10.2,10.2,0,0,1,.2-3.26A10.21,10.21,0,0,1,1122.68,400.24Z" transform="translate(-733.17 -29.22)"/><path class="cls-3" d="M949.79,287.9a5.42,5.42,0,0,1,1.27-2A5.27,5.27,0,0,1,949.79,287.9Z" transform="translate(-733.17 -29.22)"/><path class="cls-3" d="M952.4,288.14a2.79,2.79,0,0,1-.68,1.66A2.79,2.79,0,0,1,952.4,288.14Z" transform="translate(-733.17 -29.22)"/><path class="cls-2" d="M1122.9,396.36a2.84,2.84,0,0,1-1.33-1.13A2.82,2.82,0,0,1,1122.9,396.36Z" transform="translate(-733.17 -29.22)"/><path class="cls-2" d="M1049.46,384.23c.35-.06.44.22.24.69C1049.53,384.87,1049.47,384.69,1049.46,384.23Z" transform="translate(-733.17 -29.22)"/></svg>